<svg xmlns="http://www.w3.org/2000/svg" width="128.218" height="114.164" viewBox="0 0 128.218 114.164">
  <g id="Group_59424" data-name="Group 59424" transform="translate(-152.698 -194)">
    <g id="Group_59412" data-name="Group 59412" transform="translate(152.698 194)" opacity="0.1">
      <path id="Path_41699" data-name="Path 41699" d="M1412.988,97.724h8.6v6.46h-61.069V97.779h8.5c0-1.671,0-3,0-4.32q0-28.721.013-57.441c.006-4.539.077-9.081.245-13.613.042-1.132.342-2.722.924-3.261,3.165-2.931,6.456-5.6,10.309-8.874,0,5.657,0,10.379,0,15.1q0,34.192,0,68.382a11.767,11.767,0,0,0,.049,2.377,5.6,5.6,0,0,0,.9,1.572,7.236,7.236,0,0,0,.883-1.661,8.8,8.8,0,0,0,.052-2.035q0-36.582-.009-73.164c0-3.4,0-6.8,0-10.82l30.609,4.134ZM1392.33,53.073c-.885,6.172-.085,7.158,4.272,5.66V53.6Zm-.1,9.28c-.652,5.982-.029,6.716,4.256,5.28C1397.141,62.084,1396.793,61.636,1392.23,62.353Zm3.924,32.835.76-.962c-.273-1.74-.155-4.177-.93-5.022-.761-.828-2.563-.446-3.638.232-.456.288-.643,3.58-.226,3.96C1393.258,94.434,1394.783,94.648,1396.154,95.188Zm.835-9.466c-.313-2.171-.167-4.577-.9-5.326-.831-.852-2.927-.926-3.586-.048-.72.961-.426,3.4-.59,5.374Zm2.807-40.9c-1.211,5.565-.473,6.616,3.99,5.806V45.293Zm-3.274,5.454V44.7l-4.152-.486C1391.4,50.066,1391.626,50.413,1396.522,50.274Zm-.374,27.17.764-.983c-.279-1.73-.172-4.151-.948-5s-2.553-.48-3.633.178c-.447.273-.642,3.572-.219,3.965C1393.247,76.662,1394.776,76.89,1396.149,77.445Zm-3.811-42.187c-.912,6.2-.18,7.113,4.27,5.727V35.862Zm.04-8.711c-1.088,5.534-.357,6.551,4.041,5.764C1397.216,26.945,1396.982,26.593,1392.378,26.547Zm11.492,62.622h-4.236c-.817,5.888-.129,6.7,4.236,5.074Zm-7.482-65.694c.954-5.468.136-6.55-4.163-5.5C1391.571,23.6,1391.987,24.15,1396.387,23.475Zm3.269,12.52c-.827,6.126-.343,6.764,4.119,5.836V36.573Zm-.2,23.412,4.278.263c.591-6.106.139-6.646-4.278-5.474Zm4.37-40.442-4.149-.488c-.84,6.084-.194,6.9,4.2,5.586.031-.611.1-1.275.09-1.936C1403.958,21.229,1403.89,20.332,1403.825,18.965Zm-4.276,8.351c-.515,6.134-.044,6.7,4.295,5.64V27.747Zm4.28,53.117h-4.318v5.361h4.318Zm-.069-3.426V71.657h-4.269v5.351Zm-4.538-14.225c.186,1.866-.062,4.3.634,5.065a2.861,2.861,0,0,0,3.6.092c.677-.68.417-3.172.6-5.158Zm-27-34.538c2.741-1.7,2.075-4.079,1.661-6.74C1371.224,22.727,1372.369,25.409,1372.224,28.245Zm-.552,63.886,1.657,2.793a10.179,10.179,0,0,0,.788-2.718,10.6,10.6,0,0,0-.723-2.779Zm.83-38.916c2.6-1.617,1.547-3.931,1.37-6.409C1371.4,48.423,1372.442,50.732,1372.5,53.215Zm-.166-8.97c2.084-.568,2.269-1.369,1.4-5.621C1371.391,39.719,1372.584,42.235,1372.336,44.246Zm2.328,39.527c-.571-1.148-.957-1.923-1.342-2.7a10.118,10.118,0,0,0-.983,2.837,8.06,8.06,0,0,0,.832,2.624ZM1372.395,61.9c2.531-1.891,1.651-4.088,1.5-6.418C1371.369,56.731,1372.515,59.133,1372.395,61.9Zm2.228-36.066c2.678-.98,3.01-3.069.809-6.347C1375.177,21.483,1374.922,23.481,1374.622,25.833Zm-.569,46.721c-2.573.186-1.6,2.649-1.712,4.228-.028.381.517.844.8,1.269.346-1.172.74-2.322,1.015-3.525A8.8,8.8,0,0,0,1374.053,72.553Zm.09-8.459c-2.618.144-1.7,2.622-1.81,4.229-.027.388.529,1.209.8,1.2a1.46,1.46,0,0,0,.963-1.076C1374.225,67.133,1374.142,65.781,1374.142,64.094Zm-2.037-27.669c2.979-1.415,1.83-4.015,1.95-6.283C1371.326,30.95,1372.621,33.66,1372.105,36.426Zm2.738-1.657c3.02-1.655,1.689-4.269,1.913-6.577C1373.967,29.267,1375.409,32.029,1374.844,34.769Zm.392,8.466c2.536-1.477,1.375-4,1.541-6.124C1374.8,38.035,1374.8,38.035,1375.235,43.235Zm-.074,34.072c1.683-.452,1.921-.918,1.617-3.667-.07-.636-.612-1.171-.937-1.753-.279,1.157-.62,2.294-.811,3.478A8.673,8.673,0,0,0,1375.161,77.307Zm1.718-23.258c-2.838,1.493-1.66,3.986-1.683,6.5C1377.872,59.137,1376.468,56.55,1376.879,54.049Zm-1.653-1.881c2.361-1.892,1.615-4.165,1.3-6.855C1374.264,47.11,1375.154,49.434,1375.226,52.168Zm-.115,16.762c2.036-1.054,2.174-1.861,1.188-6.017C1374.266,64.345,1375.2,66.657,1375.111,68.93Zm2.222,22.8-1.41-2.509a11.443,11.443,0,0,0-.857,2.978,8.137,8.137,0,0,0,.867,2.591Z" transform="translate(-1360.519 9.979)"/>
      <path id="Path_41700" data-name="Path 41700" d="M1424.613-12.756l-9.175-1V-17.87l9.175,1.115Z" transform="translate(-1380.625 44.939)"/>
      <path id="Path_41701" data-name="Path 41701" d="M1421.223-38v-3.045l6.645.923v2.894Z" transform="translate(-1385.91 49.994)"/>
      <path id="Path_41702" data-name="Path 41702" d="M1396.812-18.616c0,1.284.027,2.429-.02,3.571a1.129,1.129,0,0,1-.426.766c-.935.661-1.911,1.265-2.885,1.9C1392.64-15.161,1393.421-16.651,1396.812-18.616Z" transform="translate(-1375.713 45.635)"/>
      <path id="Path_41703" data-name="Path 41703" d="M1428.384-74.511l-1.108-.282v-7.344l.216-.264c.3.246.845.485.852.739C1428.411-79.34,1428.384-77.015,1428.384-74.511Z" transform="translate(-1393.675 82.401)"/>
      <path id="Path_41704" data-name="Path 41704" d="M1403.053-37.393c-.841-2.342.523-3.553,2.255-4.564C1405.989-39.825,1405.5-38.822,1403.053-37.393Z" transform="translate(-1380.674 50.709)"/>
    </g>
    <path id="Path_143831" data-name="Path 143831" d="M1039.541,339.458h3.124v4.06h-79.22v-3.994h4.223c.063-.772.147-1.32.148-1.869.007-6.3.039-12.606-.027-18.907-.017-1.575.265-2.337,1.281-3.016,10.139-6.779,20.246-13.667,30.364-20.519.3-.2.614-.362,1.127-.661V339.04c1.557.6,1.595.578,1.6-1.6q.01-19.887,0-39.774v-3.111l3.955,2.093c0-3.859.109-7.5-.037-11.115-.1-2.6.362-4.192,2.055-5.308a76.109,76.109,0,0,0,5.952-4.842c.4-.333.833-.6,1.526-1.1v64.985a2.143,2.143,0,0,0,.37.031c.041-.009.1-.032.115-.074a3.14,3.14,0,0,0,.181-.783c.008-21.277.008-42.553.008-64.08a10.467,10.467,0,0,1,1.165.537c4.614,2.893,9.213,5.837,13.844,8.669.871.532,1.109,1.249,1.088,2.563-.056,3.366.034,6.738-.043,10.1-.034,1.489.326,2.19,1.248,2.643,1.552.763,3.045,1.8,4.605,2.52,1.047.482,1.379,1.255,1.372,2.9-.051,10.892-.022,21.785-.019,32.678C1039.541,337.684,1039.541,338.39,1039.541,339.458Zm-69.525-16.586c.4-.141.678-.215.947-.338q10.412-4.777,20.824-9.56c2.165-.991,2.327-1.432,1.661-4.871a1.362,1.362,0,0,0-.413.081c-7.394,3.887-14.778,7.811-22.185,11.64C969.749,320.393,969.784,321.356,970.016,322.872Zm-.056,6.775,23.622-6.622v-4.272c-7.727,2.7-15.309,5.369-22.9,7.986C969.432,327.171,969.976,328.354,969.959,329.647Zm.074,6.645,23.536-2.393v-4.094a5.026,5.026,0,0,0-.7,0c-7.311,1.206-14.62,2.435-21.933,3.611C969.694,333.62,969.776,334.685,970.033,336.293Zm57.564-40.655c0,14.9,0,29.223.009,43.543a2.555,2.555,0,0,0,.212.753c.013.038.09.039.137.04a2.618,2.618,0,0,0,.357-.089V296.036l2.325.953.179-.857c-3.94-2.222-7.986-4-12.266-6.128.37,1.824-.691,3.882.8,4.478C1021.953,295.525,1024.455,298.245,1027.6,295.637Zm-8.757-13.145c-.48,3.692-.433,3.825,1.614,4.915,1.491.794,2.979,1.6,4.474,2.376,1.875.973,3.757,1.919,5.636,2.878.515-2.6,0-3.861-1.635-4.617-2.515-1.164-4.945-2.733-7.414-4.117C1020.635,283.435,1019.746,282.978,1018.84,282.493Zm-4.739-.435c-1.887,1.4-3.648,2.706-5.41,4.01-1.812,1.341-1.851,1.473-1.331,4.781,1.717-1.179,3.415-2.336,5.108-3.508C1014.538,285.908,1014.536,285.9,1014.1,282.058Zm-6.768,15.918c1.7-.987,3.3-1.9,4.893-2.839,2.332-1.375,2.33-1.382,1.87-5.263a54.766,54.766,0,0,1-5.281,3.294C1007.152,293.968,1006.8,295.407,1007.333,297.976Zm6.84,27.194v-4.114c-1.84.425-3.542.8-5.24,1.213-2.042.492-2.207.94-1.538,4.188Zm-.061-19.722c-1.8.789-3.5,1.529-5.2,2.276-2.019.887-2.123,1.177-1.532,4.474q2.423-.941,4.85-1.884C1014.56,309.4,1014.56,309.4,1014.113,305.449Zm-.029-7.773c-1.806.974-3.6,1.941-5.386,2.9s-1.949,1.455-1.285,4.492c1.627-.8,3.257-1.59,4.885-2.4C1014.569,301.552,1014.568,301.547,1014.084,297.675Zm-6.825,21.69c1.724-.492,3.367-.968,5.012-1.428,2.274-.637,2.445-1.066,1.734-4.627-1.629.533-3.268,1.058-4.9,1.607C1006.965,315.635,1006.966,315.643,1007.259,319.365Zm7.031,9.455-7.082,1v3.764l6.942-.625a9.88,9.88,0,0,0,.134-1.012C1014.3,331.027,1014.29,330.1,1014.29,328.82Zm4.5-22.873c-.4,3.978-.087,4.511,2.493,4.2C1021.6,306.182,1021.427,305.89,1018.787,305.947Zm-.051-7.82c-.252,4.159-.057,4.5,2.51,4.521C1021.66,298.9,1021.432,298.477,1018.736,298.126Zm.005,15.477v3.879l2.545.542v-3.931c-.716-.2-1.327-.39-1.942-.54A1.994,1.994,0,0,0,1018.741,313.6Zm-.031,11.607c.549.089.927.166,1.307.208.408.046.818.059,1.21.086.436-4.07.074-4.617-2.517-3.989Zm.034,3.963v3.768c.627.063,1.148.137,1.67.161a4.718,4.718,0,0,0,.805-.092C1021.682,329.048,1021.49,328.75,1018.744,329.173Zm11.194-27.227c-.483,3.488-.2,4.13,1.8,4.135C1032.1,302.527,1031.954,302.2,1029.938,301.946Zm-.083,17.864v3.735l1.883.388C1032.056,319.992,1032.01,319.9,1029.856,319.81Zm.079-5.888c-.465,3.634-.161,4.255,1.876,3.83C1032,314,1031.984,313.975,1029.934,313.922Zm1.741-1.862c.563-3.462.3-4.073-1.764-4.1C1029.5,311.614,1029.565,311.774,1031.675,312.06Zm.1,17.567c.259-3.814.177-3.975-1.824-3.786C1029.428,329.413,1029.583,329.752,1031.772,329.628Zm-.011,5.915c.3-3.875.122-4.191-1.881-3.594v3.594Zm3.314-11.059c.311-3.628.214-3.825-1.7-3.64C1033,324.381,1033.05,324.5,1035.075,324.484Zm-1.912,7.646c.4,1.424-.765,3.341.992,3.742,1.146.262,1.022-.908,1.071-2.01C1035.327,331.557,1034.3,332.086,1033.163,332.131Zm.228-28.458c-.424,3.41-.23,3.861,1.689,3.918C1035.408,304.19,1035.32,303.986,1033.391,303.673Zm1.692,9.6c.3-3.57.175-3.834-1.7-3.83C1033,312.868,1033.1,313.1,1035.083,313.27Zm-1.708,13.241c-.347,3.645-.178,3.973,1.7,3.461C1035.415,326.555,1035.338,326.39,1033.375,326.511Zm.011-11.544c-.41,3.667-.211,4.094,1.7,3.785C1035.388,315.384,1035.388,315.384,1033.386,314.967Zm3.257,15.606c.571-.061,1.378.107,1.475-.208a4.981,4.981,0,0,0,.107-2.6c-.176-.544-.934-.673-1.582-1.079Zm1.482-10.615c.525-3.152.333-3.639-1.455-3.742V319.6Zm-1.4-14.722c-.327,3.474-.3,3.541,1.423,3.849C1038.646,306.182,1038.494,305.748,1036.721,305.236Zm.015,16.291c-.36,3.557-.241,3.822,1.536,3.521v-3.116c-.3-.111-.528-.212-.759-.273S1037.046,321.578,1036.737,321.527Zm1.444-7.075c.389-3.166.317-3.35-1.4-3.752C1036.291,313.879,1036.413,314.228,1038.181,314.452Zm-11.955-12.845c-1.536.238-1.661.648-1.2,3.911C1026.56,305.334,1026.627,305.113,1026.225,301.607Zm11.934,34.3c.456-3.228.266-3.633-1.446-3.24C1036.387,335.983,1036.423,336.07,1038.16,335.907Zm-11.914-10.118c-1.532-.182-1.665.2-1.23,3.58C1026.543,329.583,1026.581,329.473,1026.246,325.789Zm-1.256,9.568c1.536.319,1.774-.427,1.161-3.646C1024.711,331.745,1024.618,332.039,1024.99,335.356Zm0-11.917c1.528.044,1.691-.5,1.191-3.731C1024.706,319.735,1024.652,319.895,1024.992,323.439Zm1.25-9.719c-1.523-.018-1.665.412-1.224,3.7C1026.512,317.467,1026.592,317.226,1026.242,313.72Zm-2.528,12.507c-1.409-.141-1.563.365-1.079,3.535C1023.983,329.715,1024.115,329.284,1023.714,326.228Zm-1.227,9.739c.6-.413,1.254-.594,1.3-.948a10.314,10.314,0,0,0-.117-2.889c-.03-.184-.727-.127-1.183-.191Zm-.07-23.618c1.612-.232,1.756-.758,1.235-3.881C1021.692,308.668,1022.69,310.805,1022.417,312.349Zm3.793-4.671c-1.514.151-1.611.451-1.2,3.694C1026.509,311.5,1026.652,311.056,1026.21,307.678Zm-2.323,6.835c-1.583.022-1.737.55-1.245,3.753C1024.592,318.178,1023.682,316.075,1023.887,314.513Zm-1.294-7.993c1.426-.232,1.546-.638,1.115-3.747C1022.276,302.983,1022.2,303.243,1022.593,306.52Zm1.116,13.679c-1.451.352-1.538.679-1.082,3.732C1023.994,323.831,1024.111,323.448,1023.709,320.2Z" transform="translate(-761.749 -35.354)" opacity="0.1"/>
  </g>
</svg>
