<svg xmlns="http://www.w3.org/2000/svg" width="68.755" height="53.81" viewBox="0 0 68.755 53.81">
  <path id="Path_141182" data-name="Path 141182" d="M96.791,15.144l.943-.18a13.537,13.537,0,0,1,3-.23c1.255.029,3.252.578,3.642.517a3.385,3.385,0,0,0,1.221.3,52.76,52.76,0,0,0,16.053,1.269c.4-.042.858-.093,1.313-.159.236-.034,1.064-.261,1.266-.088-.15,0-2.956.977-3.507,1.131a39.785,39.785,0,0,1-9.7,1.564c-2.306.117-3.806,0-6.02-.03-1.042-.015-1.966-.122-3.005-.106-5.573.081-11.4,3.032-13.328,7.668-.18.432-.381.9-.533,1.309-.5,1.357-.825,4.839-.4,5.865.1.24,2.393,1.957,3.1,3.413-1.174-.34-1.272-1.3-5.688-1.55-4.578-.257-9,1.821-10.424,6.432a8.782,8.782,0,0,0,2.986,9.111,12.45,12.45,0,0,0,3.159,1.947,12.171,12.171,0,0,0,11.8-1.116c1.2-.771,4.075-3.386,4.359-4.434a10.131,10.131,0,0,1-1.786-.46,8.786,8.786,0,0,1-4.256-4,10.294,10.294,0,0,0,2.637,1.505,16.813,16.813,0,0,0,2.868.792c4.142.647,4.968-1.181,6.5-1.848-.281-.336-.381-.122-1.376-.524a10.16,10.16,0,0,1-1.315-.691,8.606,8.606,0,0,1-2.254-2.126,14.683,14.683,0,0,1-2.452-6.3l.018-.307c-.009-.039.008-.054.016-.079,1.492,3.429,2.536,4.643,5.4,6.5a9.062,9.062,0,0,0,7.793.374,7.63,7.63,0,0,1-2.327-3.858l-.156-1.1a.522.522,0,0,1,.048-.207l.062-.141a5.763,5.763,0,0,0,3.079,3.476c2.519,1.012,4,.059,6.624-.745,3.977-1.222,7.35-2.918,9.23-6.7a26.517,26.517,0,0,0,1.825-5.566,2.421,2.421,0,0,1,.216-.8,12.492,12.492,0,0,1-.1,6.74,11.062,11.062,0,0,1-1.483,3.344c3.121,2.033,7.427.44,9.688-2.5,1.987-2.582,3.392-5.763,2.731-9.288a12.006,12.006,0,0,0-3.782-6.615c-3.928-3.329-8.29-2.746-13.175-1.869a36.63,36.63,0,0,1-8.912.6,17.753,17.753,0,0,1-3.174-.709,5.627,5.627,0,0,1-1.387-.848c.517.411,2.737.585,3.486.631a20.489,20.489,0,0,0,3.825-.212c1.28-.157,2.676-.446,4.043-.721,3.171-.638,7.785-1.847,10.762-1.24.365.074.573.084.9.162l1.232.4a10.313,10.313,0,0,1,2,.882c4.566,2.368,7.277,8.445,6.535,13.689a15.088,15.088,0,0,1-1.576,5.045,16.147,16.147,0,0,1-6.728,6.619,20.634,20.634,0,0,1-3.216,1.365c-.313.1-.755.2-1.091.321-2.336-3.682-5.214-3.038-8.591-2.238-8.514,2.014-12.382,4-18.561,10.351-3.105,3.19-1.885,5.546-.184,9.588.374.392.386,1.07.819,1.389a51.114,51.114,0,0,1,11.708-8.685c.93-.5,1.885-.946,2.868-1.5a40.5,40.5,0,0,1,6.352-2.567,78.865,78.865,0,0,0-7,4.02,56.7,56.7,0,0,0-11.249,9.154,12.4,12.4,0,0,0-2.809,3.984,2.664,2.664,0,0,0-.245,1.141l-.065.524-5.23-12.418c-.23-.391-.009-.161-.266-.267a28.856,28.856,0,0,1-5.146,2.989c-3.252,1.379-6.075,1.708-9.215.593a13.642,13.642,0,0,1-5.129-3.41,14.4,14.4,0,0,1-3.215-4.706A9.956,9.956,0,0,1,75.58,37.006,27.559,27.559,0,0,1,77.9,35.26a12.5,12.5,0,0,1,3.8-1.536,13.071,13.071,0,0,1,3.382-.129c.022-.235,0-.142-.067-.433a10.2,10.2,0,0,1-.389-2.667c-.107-4.467,2.918-9.2,6.141-12.057,1.976-1.749,3.445-2.255,6.019-3.294" transform="translate(-71.973 -12.121)" fill="#00a551"/>
</svg>
