<svg width="24" height="24" viewBox="0 0 24 24" fill="none" xmlns="http://www.w3.org/2000/svg">
<path d="M11.5 6C12.3284 6 13 5.32843 13 4.5C13 3.67157 12.3284 3 11.5 3C10.6716 3 10 3.67157 10 4.5C10 5.32843 10.6716 6 11.5 6Z" fill="#F1F7FF"/>
<path d="M11.5 13.5C12.3284 13.5 13 12.8284 13 12C13 11.1716 12.3284 10.5 11.5 10.5C10.6716 10.5 10 11.1716 10 12C10 12.8284 10.6716 13.5 11.5 13.5Z" fill="#F1F7FF"/>
<path d="M11.5 21C12.3284 21 13 20.3284 13 19.5C13 18.6716 12.3284 18 11.5 18C10.6716 18 10 18.6716 10 19.5C10 20.3284 10.6716 21 11.5 21Z" fill="#F1F7FF"/>
</svg>
