<svg xmlns="http://www.w3.org/2000/svg" width="28.858" height="28.917" viewBox="0 0 28.858 28.917">
  <path id="Path_143747" data-name="Path 143747" d="M190.353,284.639a11.615,11.615,0,0,1-1.419,5.731.524.524,0,0,0,.117.752q2.9,2.85,5.76,5.737a2.946,2.946,0,0,1,.109,4.28,2.909,2.909,0,0,1-4.174-.065c-1.943-1.934-3.886-3.869-5.806-5.826a.545.545,0,0,0-.785-.1,11.577,11.577,0,0,1-13.477-1.739,11.358,11.358,0,0,1-3.667-9.985,11.7,11.7,0,0,1,23.13-.766A10.179,10.179,0,0,1,190.353,284.639Zm-2.94.209a8.8,8.8,0,1,0-8.721,8.76A8.737,8.737,0,0,0,187.413,284.848Z" transform="translate(-166.931 -273.071)" fill="#FFFFFF"/>
</svg>
