<svg xmlns="http://www.w3.org/2000/svg" width="41.524" height="5.213" viewBox="0 0 41.524 5.213">
  <path id="Path_143484" data-name="Path 143484" d="M122.1,39.863a2.033,2.033,0,0,1-.654-.111,1.662,1.662,0,0,1-.563-.32l.229-.383a2.036,2.036,0,0,0,.487.28,1.31,1.31,0,0,0,.489.1.7.7,0,0,0,.405-.1.336.336,0,0,0,.148-.3.277.277,0,0,0-.168-.264,3.28,3.28,0,0,0-.523-.179c-.169-.049-.317-.093-.438-.138a1.089,1.089,0,0,1-.3-.154.5.5,0,0,1-.167-.2.679.679,0,0,1-.052-.279.873.873,0,0,1,.082-.388.811.811,0,0,1,.223-.287,1.007,1.007,0,0,1,.338-.179,1.4,1.4,0,0,1,.417-.06,1.643,1.643,0,0,1,.575.1,1.5,1.5,0,0,1,.475.285l-.246.362a1.242,1.242,0,0,0-.809-.318.664.664,0,0,0-.367.1.336.336,0,0,0-.149.3.321.321,0,0,0,.03.148.278.278,0,0,0,.1.1.771.771,0,0,0,.185.079c.073.023.167.05.278.079.185.049.343.1.478.143a1.384,1.384,0,0,1,.332.168.622.622,0,0,1,.193.224.7.7,0,0,1,.063.31.784.784,0,0,1-.3.646,1.237,1.237,0,0,1-.8.239m-2.828-1.7a1.028,1.028,0,0,0-.086-.333.873.873,0,0,0-.181-.261.81.81,0,0,0-.564-.227.783.783,0,0,0-.3.06.818.818,0,0,0-.253.167.8.8,0,0,0-.178.261,1.052,1.052,0,0,0-.084.333Zm-.831,1.7a1.386,1.386,0,0,1-.579-.118,1.33,1.33,0,0,1-.446-.32,1.424,1.424,0,0,1-.287-.469,1.6,1.6,0,0,1-.1-.569,1.62,1.62,0,0,1,.1-.572,1.435,1.435,0,0,1,.287-.476,1.34,1.34,0,0,1,.446-.324,1.413,1.413,0,0,1,.583-.117,1.358,1.358,0,0,1,1.3.905,1.625,1.625,0,0,1,.1.555c0,.044,0,.084,0,.124s-.007.07-.01.1h-2.188a.986.986,0,0,0,.087.345.869.869,0,0,0,.181.266.785.785,0,0,0,.557.234.894.894,0,0,0,.228-.031.738.738,0,0,0,.372-.227.6.6,0,0,0,.114-.182l.492.149a1.165,1.165,0,0,1-.466.527A1.409,1.409,0,0,1,118.445,39.863Zm-3.3-4.047h.575v.662h-.575Zm0,1.132h.575v2.861h-.575Zm-2.814,2.4a.713.713,0,0,0,.252-.047.845.845,0,0,0,.222-.128.919.919,0,0,0,.175-.18.639.639,0,0,0,.1-.215V38.03a.974.974,0,0,0-.326-.442.935.935,0,0,0-.228-.129.652.652,0,0,0-.24-.048.668.668,0,0,0-.336.085.84.84,0,0,0-.253.225,1.11,1.11,0,0,0-.163.315,1.128,1.128,0,0,0-.057.361,1.021,1.021,0,0,0,.065.369.912.912,0,0,0,.181.3.86.86,0,0,0,.268.2A.742.742,0,0,0,112.333,39.35Zm-.187.486a1.087,1.087,0,0,1-.506-.118,1.228,1.228,0,0,1-.393-.321,1.483,1.483,0,0,1-.256-.465,1.657,1.657,0,0,1-.092-.551,1.731,1.731,0,0,1,.1-.578,1.485,1.485,0,0,1,.26-.471,1.3,1.3,0,0,1,.4-.317,1.125,1.125,0,0,1,.514-.117,1.02,1.02,0,0,1,.578.165,1.371,1.371,0,0,1,.409.426v-.542h.505v2.778a1.337,1.337,0,0,1-.109.554,1.18,1.18,0,0,1-.3.408,1.4,1.4,0,0,1-.463.253,1.839,1.839,0,0,1-.576.088,1.589,1.589,0,0,1-.753-.161,1.455,1.455,0,0,1-.5-.451l.324-.319a1.031,1.031,0,0,0,.406.351,1.206,1.206,0,0,0,.528.119,1.124,1.124,0,0,0,.338-.049.734.734,0,0,0,.47-.415.937.937,0,0,0,.07-.379v-.437a1.012,1.012,0,0,1-.4.4A1.1,1.1,0,0,1,112.145,39.836Zm-4.609-1.45a1.158,1.158,0,0,0,.062.384,1,1,0,0,0,.171.3.815.815,0,0,0,.26.2.724.724,0,0,0,.643,0,.8.8,0,0,0,.259-.206,1.012,1.012,0,0,0,.172-.307,1.138,1.138,0,0,0,.062-.382A1.165,1.165,0,0,0,109.1,38a1.021,1.021,0,0,0-.172-.31.825.825,0,0,0-.259-.2.737.737,0,0,0-.321-.073.677.677,0,0,0-.316.077.839.839,0,0,0-.259.208,1.071,1.071,0,0,0-.175.308A1.123,1.123,0,0,0,107.536,38.387Zm.815,1.476a1.362,1.362,0,0,1-.583-.121,1.319,1.319,0,0,1-.441-.323,1.417,1.417,0,0,1-.283-.473,1.667,1.667,0,0,1,0-1.132,1.427,1.427,0,0,1,.284-.475,1.4,1.4,0,0,1,.445-.323,1.46,1.46,0,0,1,1.155,0,1.38,1.38,0,0,1,.728.8,1.667,1.667,0,0,1,0,1.132,1.421,1.421,0,0,1-.285.473,1.38,1.38,0,0,1-.444.323A1.361,1.361,0,0,1,108.351,39.863Zm-3.592-4.047h.574v3.166a.373.373,0,0,0,.078.25.277.277,0,0,0,.221.089.559.559,0,0,0,.133-.021,1.242,1.242,0,0,0,.142-.05l.085.472a1.444,1.444,0,0,1-.3.094,1.53,1.53,0,0,1-.307.035.611.611,0,0,1-.462-.17.654.654,0,0,1-.166-.481Zm-3.533,2.571a1.159,1.159,0,0,0,.062.384.965.965,0,0,0,.171.3.825.825,0,0,0,.26.2.692.692,0,0,0,.321.075.7.7,0,0,0,.322-.075.8.8,0,0,0,.259-.206.989.989,0,0,0,.171-.307,1.138,1.138,0,0,0,.062-.382,1.165,1.165,0,0,0-.062-.381,1,1,0,0,0-.171-.31.823.823,0,0,0-.259-.2.738.738,0,0,0-.322-.073.673.673,0,0,0-.315.077.839.839,0,0,0-.259.208,1.049,1.049,0,0,0-.175.308A1.124,1.124,0,0,0,101.226,38.387Zm.814,1.476a1.361,1.361,0,0,1-.582-.121,1.332,1.332,0,0,1-.442-.323,1.433,1.433,0,0,1-.283-.473,1.667,1.667,0,0,1,0-1.132,1.445,1.445,0,0,1,.285-.475,1.4,1.4,0,0,1,.445-.323,1.46,1.46,0,0,1,1.155,0,1.424,1.424,0,0,1,.444.323,1.445,1.445,0,0,1,.285.475,1.667,1.667,0,0,1,0,1.132,1.436,1.436,0,0,1-.285.473,1.38,1.38,0,0,1-.444.323A1.362,1.362,0,0,1,102.04,39.863Zm-2.694-.054h-.574v-1.6a1.1,1.1,0,0,0-.121-.587.408.408,0,0,0-.365-.183.694.694,0,0,0-.25.048.814.814,0,0,0-.235.14,1.079,1.079,0,0,0-.2.213,1.01,1.01,0,0,0-.132.271v1.7H96.9V36.948h.523v.574a1.121,1.121,0,0,1,.455-.458,1.336,1.336,0,0,1,.657-.166.781.781,0,0,1,.4.092.688.688,0,0,1,.248.255,1.167,1.167,0,0,1,.128.372,2.676,2.676,0,0,1,.035.446Zm-3.915,0h-.574v-1.6a1.023,1.023,0,0,0-.133-.583.439.439,0,0,0-.383-.188.63.63,0,0,0-.24.048.8.8,0,0,0-.227.14.979.979,0,0,0-.191.213.939.939,0,0,0-.126.271v1.7h-.575V35.816h.575v1.706a1.175,1.175,0,0,1,.426-.459,1.094,1.094,0,0,1,.586-.165.825.825,0,0,1,.42.1.758.758,0,0,1,.264.254,1.051,1.051,0,0,1,.139.369,2.484,2.484,0,0,1,.038.446ZM89.09,38.375a1.609,1.609,0,0,1,.1-.568,1.452,1.452,0,0,1,.284-.472,1.375,1.375,0,0,1,.447-.32A1.408,1.408,0,0,1,90.5,36.9a1.332,1.332,0,0,1,.728.193,1.237,1.237,0,0,1,.458.519l-.56.187a.744.744,0,0,0-.267-.284.738.738,0,0,0-.691-.029.8.8,0,0,0-.26.2,1,1,0,0,0-.171.3,1.163,1.163,0,0,0-.062.388,1.127,1.127,0,0,0,.066.386.955.955,0,0,0,.177.308.807.807,0,0,0,.261.206.683.683,0,0,0,.315.075.772.772,0,0,0,.21-.031.726.726,0,0,0,.189-.086.719.719,0,0,0,.152-.126.469.469,0,0,0,.1-.151l.563.175a1.159,1.159,0,0,1-.454.527,1.467,1.467,0,0,1-1.331.084,1.332,1.332,0,0,1-.447-.326,1.467,1.467,0,0,1-.287-.473A1.6,1.6,0,0,1,89.09,38.375Zm-1.659-.213a1,1,0,0,0-.087-.333.839.839,0,0,0-.181-.261.8.8,0,0,0-.255-.167.806.806,0,0,0-.308-.06.783.783,0,0,0-.3.06.807.807,0,0,0-.253.167.77.77,0,0,0-.177.261,1,1,0,0,0-.085.333Zm-.831,1.7a1.386,1.386,0,0,1-.579-.118,1.344,1.344,0,0,1-.447-.32,1.42,1.42,0,0,1-.286-.469,1.6,1.6,0,0,1-.1-.569,1.619,1.619,0,0,1,.1-.572,1.43,1.43,0,0,1,.286-.476,1.353,1.353,0,0,1,.447-.324A1.413,1.413,0,0,1,86.6,36.9a1.38,1.38,0,0,1,.579.119,1.371,1.371,0,0,1,.72.786,1.625,1.625,0,0,1,.1.555c0,.044,0,.084,0,.124s-.008.07-.01.1H85.8a.986.986,0,0,0,.086.345.889.889,0,0,0,.182.266.785.785,0,0,0,.557.234.893.893,0,0,0,.228-.031.737.737,0,0,0,.372-.227.644.644,0,0,0,.114-.182l.491.149a1.169,1.169,0,0,1-.465.527A1.411,1.411,0,0,1,86.6,39.863Zm-1.863-3.4H83.506v3.342h-.591V36.467H81.678v-.543h3.059Z" transform="translate(-81.678 -35.816)" fill="#fff"/>
</svg>
