<svg xmlns="http://www.w3.org/2000/svg" width="19.898" height="19.898" viewBox="0 0 19.898 19.898">
  <path id="Icon_awesome-user-alt" data-name="Icon awesome-user-alt" d="M9.449,10.63A5.315,5.315,0,1,0,4.134,5.315,5.316,5.316,0,0,0,9.449,10.63Zm4.724,1.181H12.14a6.425,6.425,0,0,1-5.381,0H4.724A4.724,4.724,0,0,0,0,16.536v.591A1.772,1.772,0,0,0,1.772,18.9H17.126A1.772,1.772,0,0,0,18.9,17.126v-.591A4.724,4.724,0,0,0,14.173,11.811Z" transform="translate(0.5 0.5)" fill="none" stroke="#fff" stroke-width="1"/>
</svg>
