<svg id="Group_58156" data-name="Group 58156" xmlns="http://www.w3.org/2000/svg" width="80.387" height="19.976" viewBox="0 0 80.387 19.976">
  <path id="Path_143465" data-name="Path 143465" d="M32.742,16.672,28.349,28.121q-.391.993-1.024,1.053a4.529,4.529,0,0,1-1.183-.033q-.547-.092-1-1.02L20.79,16.65a1.442,1.442,0,0,1,1.627-1.636q1.031,0,1.329.572t3.03,8.741q2.712-8.168,3.049-8.725a1.483,1.483,0,0,1,1.323-.588q1.594,0,1.594,1.658" transform="translate(-20.79 -14.997)" fill="#d4d9df"/>
  <path id="Path_143466" data-name="Path 143466" d="M67.978,17.822,59.6,28.553a1.443,1.443,0,0,1-2.3.152,1.514,1.514,0,0,1-.109-2.366l8.351-10.677A1.457,1.457,0,0,1,67.87,15.5a1.461,1.461,0,0,1,.109,2.322M57.3,15.5a1.467,1.467,0,0,1,2.342.163l8.351,10.677a1.515,1.515,0,0,1-.108,2.366,1.455,1.455,0,0,1-2.311-.152L57.2,17.822A1.463,1.463,0,0,1,57.3,15.5Z" transform="translate(-29.412 -14.992)" fill="#d4d9df"/>
  <path id="Path_143467" data-name="Path 143467" d="M42.927,15.029h2.158q4.9,0,4.9,4.918v4.241q0,5.017-4.881,5.017H42.883q-4.848,0-4.847-4.908V19.958q0-4.93,4.891-4.929m-.033,3.293a1.428,1.428,0,0,0-1.605,1.625v4.307q0,1.677,1.605,1.678h2.191a1.47,1.47,0,0,0,1.648-1.678V19.9q0-1.581-1.648-1.581Z" transform="translate(-24.934 -15.001)" fill="#d4d9df"/>
  <path id="Path_143468" data-name="Path 143468" d="M76.743,15.029h5.445q4.9,0,4.9,4.918v4.241q0,5.017-4.881,5.017H78.392v4.1a1.457,1.457,0,0,1-1.627,1.669,1.437,1.437,0,0,1-1.627-1.625V16.7q0-1.667,1.605-1.668m1.649,3.293v7.611h3.8a1.47,1.47,0,0,0,1.648-1.678V19.9q0-1.581-1.648-1.581Z" transform="translate(-33.85 -15.001)" fill="#d4d9df"/>
  <path id="Path_143469" data-name="Path 143469" d="M102.977,21.055a1.466,1.466,0,0,1-1.659-1.658V18.329h-2.68a1.475,1.475,0,0,0-1.658,1.679v7.568a1.627,1.627,0,1,1-3.254.022V20.074q0-5.016,4.88-5.016l4.339.01a1.432,1.432,0,0,1,1.627,1.614V19.4q0,1.658-1.594,1.658" transform="translate(-38.316 -15.008)" fill="#d4d9df"/>
  <path id="Path_143470" data-name="Path 143470" d="M115.761,15.029h2.16q4.9,0,4.9,4.918v4.241q0,5.017-4.88,5.017h-2.224q-4.848,0-4.848-4.908V19.958q0-4.93,4.891-4.929m-.032,3.293a1.428,1.428,0,0,0-1.6,1.625v4.307q0,1.677,1.6,1.678h2.192a1.47,1.47,0,0,0,1.647-1.678V19.9q0-1.581-1.647-1.581Z" transform="translate(-42.436 -15.001)" fill="#d4d9df"/>
</svg>
