<svg xmlns="http://www.w3.org/2000/svg" width="28.491" height="27.531" viewBox="0 0 28.491 27.531">
  <g id="Group_53880" data-name="Group 53880" transform="translate(56.902 -617.633)">
    <g id="Group_53879" data-name="Group 53879" transform="translate(-56.902 617.633)">
      <g id="Group_53878" data-name="Group 53878" transform="translate(0 0)">
        <g id="Group_53877" data-name="Group 53877">
          <g id="Group_53876" data-name="Group 53876">
            <g id="Group_53875" data-name="Group 53875">
              <path id="Path_143303" data-name="Path 143303" d="M768.1,486.26c.127-.148.109-.341.155-.513a4.708,4.708,0,0,1,4.464-3.532c3.255-.028,6.51-.035,9.764,0a4.687,4.687,0,0,1,4.6,4.614q.04,2.962,0,5.925a4.7,4.7,0,0,1-4.712,4.638q-4.465.012-8.93,0a.738.738,0,0,0-.48.162c-1.018.773-2.044,1.536-3.066,2.3-.8.6-1.241.532-1.79-.3Zm1.9,11.126c.106-.072.174-.115.239-.164.631-.471,1.266-.937,1.888-1.419a1.429,1.429,0,0,1,.923-.307q4.59.01,9.181,0a2.834,2.834,0,0,0,2.956-2.955q.006-2.754,0-5.509a2.828,2.828,0,0,0-2.9-2.931q-4.7-.016-9.4.014a2.812,2.812,0,0,0-2.879,2.839C769.986,490.417,770,493.876,770,497.386Z" transform="translate(-768.098 -472.722)" fill="#fff"/>
              <path id="Path_143304" data-name="Path 143304" d="M915.106,371.954a.58.58,0,0,0-.06.083.957.957,0,0,1-1.542.377q-1.628-1.211-3.244-2.436a.813.813,0,0,0-.555-.188c-.435.016-.871.007-1.307.007a.939.939,0,0,1-.99-.937.948.948,0,0,1,1-.962c.6,0,1.205.006,1.808,0a1.275,1.275,0,0,1,.822.277c.64.489,1.288.969,1.933,1.451.064.048.133.092.2.136.065-.056.037-.115.037-.165q0-5.049,0-10.1a2.852,2.852,0,0,0-2.395-2.933,3.176,3.176,0,0,0-.554-.034q-4.645,0-9.29,0a2.828,2.828,0,0,0-2.949,2.958c0,.6,0,1.205,0,1.808a.967.967,0,0,1-.948,1.021.953.953,0,0,1-.95-1.011c0-.631,0-1.261,0-1.892a4.726,4.726,0,0,1,4.131-4.748,5.042,5.042,0,0,1,.722-.032q4.631,0,9.263,0a4.714,4.714,0,0,1,4.816,4.05c.006.038.01.072.054.082Z" transform="translate(-886.615 -354.633)" fill="#fff"/>
              <path id="Path_143306" data-name="Path 143306" d="M834.754,548.617h-2.862a.951.951,0,1,1,0-1.9h5.725a.951.951,0,1,1,0,1.9Z" transform="translate(-826.21 -532.462)" fill="#fff"/>
              <path id="Path_143307" data-name="Path 143307" d="M833.317,599.649c-.49,0-.981,0-1.472,0a.932.932,0,0,1-.973-.951.942.942,0,0,1,.982-.947q1.486,0,2.971,0a.949.949,0,1,1-.009,1.9c-.25,0-.5,0-.75,0h-.75Z" transform="translate(-826.212 -579.703)" fill="#fff"/>
            </g>
          </g>
        </g>
      </g>
    </g>
  </g>
</svg>
