<svg xmlns="http://www.w3.org/2000/svg" width="34.303" height="35.344" viewBox="0 0 34.303 35.344">
  <g id="Group_52973" data-name="Group 52973" transform="translate(-292.504 -846.721)">
    <path id="Path_140532" data-name="Path 140532" d="M275.381,901.948v10.767a2.181,2.181,0,0,1-2.175,2.175H249.5a2.181,2.181,0,0,1-2.175-2.175V901.948" transform="translate(48.682 -33.825)" fill="none" stroke="#b8c0cc" stroke-linecap="round" stroke-width="2"/>
    <path id="Path_140533" data-name="Path 140533" d="M256.312,913.321v-4.35a2.181,2.181,0,0,1,2.175-2.175h4.133a2.181,2.181,0,0,1,2.175,2.175v4.35" transform="translate(49.372 -33.453)" fill="none" stroke="#b8c0cc" stroke-linecap="round" stroke-width="2"/>
    <path id="Path_140534" data-name="Path 140534" d="M250.438,899.1A5.453,5.453,0,0,1,245,893.658v-8.483A2.181,2.181,0,0,1,247.175,883h8.591v10.658A5.362,5.362,0,0,1,250.438,899.1Z" transform="translate(48.504 -35.279)" fill="none" stroke="#12263d" stroke-linecap="round" stroke-width="2"/>
    <path id="Path_140535" data-name="Path 140535" d="M260.437,899.1A5.453,5.453,0,0,1,255,893.658V883h10.766v10.658A5.229,5.229,0,0,1,260.437,899.1Z" transform="translate(49.272 -35.279)" fill="none" stroke="#12263d" stroke-linecap="round" stroke-width="2"/>
    <path id="Path_140536" data-name="Path 140536" d="M270.436,899.1A5.453,5.453,0,0,1,265,893.658V883h8.591a2.181,2.181,0,0,1,2.175,2.175v8.483A5.229,5.229,0,0,1,270.436,899.1Z" transform="translate(50.039 -35.279)" fill="none" stroke="#12263d" stroke-linecap="round" stroke-width="2"/>
  </g>
</svg>
