<svg xmlns="http://www.w3.org/2000/svg" xmlns:xlink="http://www.w3.org/1999/xlink" width="122" height="122" viewBox="0 0 122 122">
  <defs>
    <filter id="Ellipse_1" x="0" y="0" width="122" height="122" filterUnits="userSpaceOnUse">
      <feOffset dy="3" input="SourceAlpha"/>
      <feGaussianBlur stdDeviation="3" result="blur"/>
      <feFlood flood-color="#9a9a9a" flood-opacity="0.161"/>
      <feComposite operator="in" in2="blur"/>
      <feComposite in="SourceGraphic"/>
    </filter>
  </defs>
  <g id="Group_53026" data-name="Group 53026" transform="translate(748.883 -4007.117)">
    <g transform="matrix(1, 0, 0, 1, -748.88, 4007.12)" filter="url(#Ellipse_1)">
      <circle id="Ellipse_1-2" data-name="Ellipse 1" cx="52" cy="52" r="52" transform="translate(9 6)" fill="#fff"/>
    </g>
    <g id="user_3_" data-name="user (3)" transform="translate(-735.28 4017.72)">
      <path id="Path_4" data-name="Path 4" d="M26,68.565,11.728,76.351a12.827,12.827,0,0,0-2.291,1.63,47.806,47.806,0,0,0,61.424.159,12.664,12.664,0,0,0-2.516-1.686L53.06,68.813A5.829,5.829,0,0,1,49.838,63.6v-6a23.085,23.085,0,0,0,1.446-1.859,35.169,35.169,0,0,0,4.751-9.574,4.8,4.8,0,0,0,3.4-4.567V35.2a4.779,4.779,0,0,0-1.6-3.547V22.4S59.741,8,40.24,8s-17.6,14.4-17.6,14.4v9.253a4.772,4.772,0,0,0-1.6,3.547v6.4a4.8,4.8,0,0,0,2.213,4.027A31.765,31.765,0,0,0,29.041,57.6v5.849A5.835,5.835,0,0,1,26,68.565Z" transform="translate(7.598 6.442)" fill="#e7eced"/>
      <g id="Group_4" data-name="Group 4" transform="translate(0 0)">
        <path id="Path_5" data-name="Path 5" d="M48.654.007a47.806,47.806,0,0,0-31.6,84.4,12.711,12.711,0,0,1,2.269-1.614L33.6,75.009a5.831,5.831,0,0,0,3.038-5.118V64.043a31.734,31.734,0,0,1-5.787-11.974,4.8,4.8,0,0,1-2.213-4.027v-6.4a4.779,4.779,0,0,1,1.6-3.547V28.841s-1.9-14.4,17.6-14.4,17.6,14.4,17.6,14.4v9.253a4.772,4.772,0,0,1,1.6,3.547v6.4a4.8,4.8,0,0,1-3.4,4.567,35.169,35.169,0,0,1-4.751,9.574,23.085,23.085,0,0,1-1.446,1.859v6a5.827,5.827,0,0,0,3.222,5.213l15.284,7.641a12.727,12.727,0,0,1,2.509,1.682A47.825,47.825,0,0,0,48.654.007Z" transform="translate(0 0)" fill="#11253c"/>
      </g>
    </g>
  </g>
</svg>
